Coordinates
version=1
nRows=14
nColumns=46
inDegrees=yes

Units are S.I. units (second, meters, Newtons, ...)
Angles are in degrees.

endheader
time	pelvis_tilt	pelvis_list	pelvis_rotation	pelvis_tx	pelvis_ty	pelvis_tz	bb_angle	bb_tx	bb_ty	bb_tz	hip_flexion_r	hip_adduction_r	hip_rotation_r	knee_angle_r	knee_angle_r_beta	ankle_angle_r	subtalar_angle_r	mtp_angle_r	crank_angle_r	hip_flexion_l	hip_adduction_l	hip_rotation_l	knee_angle_l	knee_angle_l_beta	ankle_angle_l	subtalar_angle_l	mtp_angle_l	crank_angle_l	lumbar_extension	lumbar_bending	lumbar_rotation	arm_flex_r	arm_add_r	arm_rot_r	elbow_flex_r	pro_sup_r	wrist_flex_r	wrist_dev_r	arm_flex_l	arm_add_l	arm_rot_l	elbow_flex_l	pro_sup_l	wrist_flex_l	wrist_dev_l
      0.00000000	    -20.12549823	      6.00941864	      6.04890450	      0.12390711	      1.10563222	     -0.28784803	      0.00000000	      0.50000000	      0.00000000	      0.25000000	     41.58672354	    -12.35225634	     -1.16949333	     43.24187985	      0.75471318	     18.40136876	     -4.39564645	      0.00000000	      0.00000000	     92.87644207	     -3.51339736	     -4.34101573	    102.57663586	      1.79030003	     22.34986122	      1.24585295	      0.00000000	      0.00000000	    -40.80627106	     -1.56681326	    -12.21821867	     77.91301600	     -5.09364134	     35.99476940	     30.66504253	     41.99981930	      0.00000000	      0.00000000	     74.42533973	    -17.45983286	     29.87599607	     36.41748497	     45.59649251	      0.00000000	      0.00000000
      0.00500000	    -20.15794685	      5.99412267	      6.02863484	      0.12388586	      1.10551522	     -0.28780548	      0.00000000	      0.50000000	      0.00000000	      0.25000000	     41.63872287	    -12.31359610	     -1.13954788	     43.25542735	      0.75494963	     18.36741984	     -4.45855248	      0.00000000	      0.00000000	     92.92731812	     -3.55075260	     -4.32267818	    102.59944188	      1.79069807	     22.36304877	      1.30241780	      0.00000000	      0.00000000	    -40.77504413	     -1.58295420	    -12.16686724	     77.98101558	     -5.48866372	     37.30881995	     30.82334753	     42.30021071	      0.00000000	      0.00000000	     74.54799874	    -17.85209658	     31.21977556	     36.58104347	     45.62359761	      0.00000000	      0.00000000
      0.01000000	    -20.17041489	      5.98675410	      6.02255083	      0.12390014	      1.10547150	     -0.28782854	      0.00000000	      0.50000000	      0.00000000	      0.25000000	     41.66060411	    -12.30658651	     -1.13427257	     43.26294627	      0.75508086	     18.36247316	     -4.45488880	      0.00000000	      0.00000000	     92.94674897	     -3.56220083	     -4.32073846	    102.61384794	      1.79094950	     22.36188868	      1.30602721	      0.00000000	      0.00000000	    -40.75331604	     -1.58596250	    -12.15641594	     77.96950126	     -5.41866795	     37.07412169	     30.76171016	     42.31308484	      0.00000000	      0.00000000	     74.51342526	    -17.75914831	     30.95692920	     36.54843120	     45.58378445	      0.00000000	      0.00000000
      0.01500000	    -20.12264217	      5.92865770	      6.11071995	      0.12405426	      1.10571971	     -0.28784963	      0.00000000	      0.50000000	      0.00000000	      0.25000000	     41.50237378	    -12.28635773	     -1.23259269	     43.13757934	      0.75289279	     18.32723012	     -4.52208833	      0.00000000	      0.00000000	     92.89006073	     -3.51008874	     -4.30637415	    102.59237308	      1.79057470	     22.32198791	      1.25096065	      0.00000000	      0.00000000	    -40.81363248	     -1.51902319	    -12.20136341	     77.88913917	     -5.19241866	     36.18596090	     30.66035660	     42.28999069	      0.00000000	      0.00000000	     74.46940557	    -17.45703708	     30.08961381	     36.47860902	     45.23831695	      0.00000000	      0.00000000
      0.02000000	    -20.17734066	      5.92799019	      6.14486203	      0.12400889	      1.10564055	     -0.28795034	      0.00000000	      0.50000000	      0.00000000	      0.25000000	     41.57161550	    -12.32420855	     -1.22912181	     43.17552396	      0.75355505	     18.37024270	     -4.38855712	      0.00000000	      0.00000000	     92.94966789	     -3.45465087	     -4.30090782	    102.58211682	      1.79039569	     22.31228837	      1.23001693	      0.00000000	      0.00000000	    -40.74160835	     -1.51340806	    -12.19684333	     77.90892142	     -5.13131729	     36.00540173	     30.47663687	     42.27728668	      0.00000000	      0.00000000	     74.45045180	    -17.33467759	     29.97378949	     36.41049516	     44.97533527	      0.00000000	      0.00000000
      0.02500000	    -20.17769468	      5.95247541	      6.11578322	      0.12406908	      1.10565293	     -0.28797211	      0.00000000	      0.50000000	      0.00000000	      0.25000000	     41.58369170	    -12.32730848	     -1.21462211	     43.15889628	      0.75326484	     18.31978693	     -4.40071217	      0.00000000	      0.00000000	     92.94742871	     -3.49682129	     -4.32665045	    102.60569001	      1.79080712	     22.31178250	      1.29558745	      0.00000000	      0.00000000	    -40.73814674	     -1.56075695	    -12.17424154	     77.91332835	     -5.25984672	     36.31447214	     30.47934696	     42.37634938	      0.00000000	      0.00000000	     74.48779753	    -17.37901858	     30.28139388	     36.38974093	     44.80144700	      0.00000000	      0.00000000
      0.03000000	    -20.27626146	      5.98996539	      6.06945195	      0.12415660	      1.10544461	     -0.28797297	      0.00000000	      0.50000000	      0.00000000	      0.25000000	     41.72931418	    -12.33837236	     -1.17031169	     43.18932946	      0.75379600	     18.28426097	     -4.52451422	      0.00000000	      0.00000000	     93.04735822	     -3.55792554	     -4.41297952	    102.63427373	      1.79130600	     22.23940803	      0.97572269	      0.00000000	      0.00000000	    -40.66888418	     -1.63095667	    -12.07630854	     77.51052370	     -5.51122000	     35.39112030	     31.67266976	     42.49694918	      0.00000000	      0.00000000	     73.95005503	    -17.34149077	     29.49511831	     37.48904682	     44.80960623	      0.00000000	      0.00000000
      0.03500000	    -20.09045274	      5.98413582	      6.16524712	      0.12413631	      1.10583281	     -0.28810112	      0.00000000	      0.50000000	      0.00000000	      0.25000000	     41.47684988	    -12.40477982	     -1.27530428	     43.14712015	      0.75305931	     18.34432377	     -4.30841175	      0.00000000	      0.00000000	     92.84368444	     -3.42973273	     -4.35880300	    102.61022101	      1.79088620	     22.31305448	      1.28780955	      0.00000000	      0.00000000	    -40.85813130	     -1.54617594	    -12.30219414	     77.86208824	     -5.14338187	     35.95597264	     30.65508739	     42.34746100	      0.00000000	      0.00000000	     74.41772903	    -17.37229330	     29.85811289	     36.60582058	     44.57678929	      0.00000000	      0.00000000
      0.04000000	    -20.13166622	      5.98221648	      6.13374077	      0.12409845	      1.10572966	     -0.28805901	      0.00000000	      0.50000000	      0.00000000	      0.25000000	     41.55435969	    -12.37231138	     -1.22076968	     43.17648153	      0.75357176	     18.28369186	     -4.39594775	      0.00000000	      0.00000000	     92.89682547	     -3.46309669	     -4.35391899	    102.62215394	      1.79109447	     22.27536629	      1.23058329	      0.00000000	      0.00000000	    -40.79744533	     -1.58442044	    -12.23964362	     77.90971286	     -5.14460325	     36.02179026	     30.44112715	     42.35330884	      0.00000000	      0.00000000	     74.46365397	    -17.30347769	     29.96760790	     36.46752422	     44.46087035	      0.00000000	      0.00000000
      0.04500000	    -20.09976311	      5.94548392	      6.15913238	      0.12420299	      1.10582321	     -0.28812165	      0.00000000	      0.50000000	      0.00000000	      0.25000000	     41.48291136	    -12.36883873	     -1.30294358	     43.12628568	      0.75269568	     18.31082204	     -4.30482690	      0.00000000	      0.00000000	     92.86918584	     -3.45640214	     -4.31769564	    102.64442395	      1.79148316	     22.36479355	      1.41655733	      0.00000000	      0.00000000	    -40.84561811	     -1.50641216	    -12.26009330	     77.79401242	     -5.11195547	     35.71138802	     30.77534124	     42.39103186	      0.00000000	      0.00000000	     74.36408681	    -17.34914777	     29.68904113	     36.68410825	     44.34070192	      0.00000000	      0.00000000
      0.05000000	    -20.19601279	      5.97889787	      6.11794304	      0.12430066	      1.10560552	     -0.28808019	      0.00000000	      0.50000000	      0.00000000	      0.25000000	     41.62307849	    -12.37685161	     -1.25019756	     43.16802322	      0.75342414	     18.25522256	     -4.41376854	      0.00000000	      0.00000000	     92.96975478	     -3.52514419	     -4.40834484	    102.68272176	      1.79215158	     22.29834876	      1.09680000	      0.00000000	      0.00000000	    -40.76247010	     -1.60376108	    -12.15408510	     77.44726458	     -5.35739639	     34.89083222	     31.85035738	     42.50180148	      0.00000000	      0.00000000	     73.85728055	    -17.31508178	     29.00762910	     37.68764136	     44.37063770	      0.00000000	      0.00000000
      0.05500000	    -20.03082154	      5.96433766	      6.16603391	      0.12425764	      1.10594541	     -0.28815655	      0.00000000	      0.50000000	      0.00000000	      0.25000000	     41.40077085	    -12.40134097	     -1.33208217	     43.10751416	      0.75236805	     18.32203628	     -4.23705696	      0.00000000	      0.00000000	     92.79154747	     -3.44747032	     -4.32688267	    102.66243705	      1.79179754	     22.39415408	      1.52667353	      0.00000000	      0.00000000	    -40.93251443	     -1.53363114	    -12.31610444	     77.76409282	     -5.07355319	     35.50949716	     30.87284282	     42.33408279	      0.00000000	      0.00000000	     74.34561616	    -17.35647613	     29.50600364	     36.84873941	     44.16873950	      0.00000000	      0.00000000
      0.06000000	    -20.17294090	      5.90634333	      6.14707641	      0.12421268	      1.10561369	     -0.28813108	      0.00000000	      0.50000000	      0.00000000	      0.25000000	     41.60379486	    -12.32874659	     -1.29122804	     43.17991207	      0.75363164	     18.26343929	     -4.32036030	      0.00000000	      0.00000000	     92.98461100	     -3.49002025	     -4.26999947	    102.69253153	      1.79232279	     22.34493944	      1.54361076	      0.00000000	      0.00000000	    -40.77447477	     -1.52066555	    -12.22413109	     77.68196025	     -5.24108687	     35.52293584	     31.17032958	     42.43196333	      0.00000000	      0.00000000	     74.27550577	    -17.40582282	     29.59458815	     37.07100086	     44.24037421	      0.00000000	      0.00000000
      0.06500000	    -20.12433829	      5.93699767	      6.15118494	      0.12420095	      1.10573321	     -0.28815951	      0.00000000	      0.50000000	      0.00000000	      0.25000000	     41.53864685	    -12.35447134	     -1.26550527	     43.15460299	      0.75318991	     18.24116439	     -4.35947540	      0.00000000	      0.00000000	     92.92489250	     -3.46289122	     -4.30629291	    102.68289355	      1.79215458	     22.28592893	      1.35919569	      0.00000000	      0.00000000	    -40.80698601	     -1.54740121	    -12.23102875	     77.84939264	     -5.27077839	     36.28327557	     30.61567071	     42.48030913	      0.00000000	      0.00000000	     74.50824913	    -17.43449053	     30.35978994	     36.52799477	     44.33784579	      0.00000000	      0.00000000
